<?xml version="1.0" standalone="no"?>
<!DOCTYPE svg PUBLIC "-//W3C//DTD SVG 20010904//EN"
 "http://www.w3.org/TR/2001/REC-SVG-20010904/DTD/svg10.dtd">
<svg version="1.0" xmlns="http://www.w3.org/2000/svg"
 width="1080.000000pt" height="1080.000000pt" viewBox="0 0 1080.000000 1080.000000"
 preserveAspectRatio="xMidYMid meet">

<g transform="translate(0.000000,1080.000000) scale(0.100000,-0.100000)"
fill="#000000" stroke="none">
<path d="M907 9223 c-4 -3 -7 -183 -7 -400 l0 -393 3320 0 3320 0 0 -65 0 -65
-3280 0 -3280 0 0 -355 0 -355 3280 0 3280 0 0 -60 0 -60 -3380 0 -3380 0 0
-395 0 -395 4645 0 4645 0 0 1275 0 1275 -4578 0 c-2518 0 -4582 -3 -4585 -7z"/>
<path d="M660 6060 l0 -480 810 0 810 0 0 -144 0 -143 -132 -7 c-73 -3 -493
-18 -933 -32 -440 -14 -801 -27 -803 -29 -1 -1 54 -236 123 -521 69 -285 125
-524 125 -531 0 -10 -32 -13 -140 -13 l-140 0 0 -450 0 -450 988 -1 987 0
-205 -60 c-459 -134 -1049 -268 -1513 -345 -125 -20 -224 -40 -220 -44 4 -4
78 -33 163 -65 179 -67 450 -182 688 -292 200 -92 724 -356 876 -442 60 -33
117 -61 125 -61 44 0 944 261 1203 349 l86 29 46 -69 c62 -92 138 -236 176
-332 34 -85 83 -265 100 -367 6 -36 13 -75 15 -88 l5 -22 1412 0 c1646 0 2162
11 2608 56 507 51 756 151 859 344 59 110 61 133 61 803 l0 607 740 0 740 0 0
450 0 450 -740 0 -740 0 0 95 0 95 -1270 0 -1270 0 0 -95 0 -95 -2422 2
c-1333 1 -2400 3 -2373 5 28 2 861 52 1853 112 991 59 1805 111 1808 114 8 8
-12 966 -20 974 -7 7 -765 -13 -878 -23 l-68 -6 0 121 0 121 480 0 480 0 0
480 0 480 -2250 0 -2250 0 0 -480z m5640 -3002 c0 -218 -5 -243 -50 -265 -78
-37 -447 -55 -1060 -51 l-465 3 290 119 c160 65 293 122 297 125 5 4 -118 65
-272 136 -154 70 -280 130 -280 132 0 2 347 3 770 3 l770 0 0 -202z"/>
<path d="M5340 5505 l0 -965 2395 0 2395 0 0 965 0 965 -2395 0 -2395 0 0
-965z m3050 5 l0 -100 -600 0 -600 0 0 100 0 100 600 0 600 0 0 -100z"/>
</g>
</svg>
